<?xml version="1.0" encoding="UTF-8" standalone="no"?>
<svg
   xmlns:dc="http://purl.org/dc/elements/1.1/"
   xmlns:cc="http://creativecommons.org/ns#"
   xmlns:rdf="http://www.w3.org/1999/02/22-rdf-syntax-ns#"
   xmlns:svg="http://www.w3.org/2000/svg"
   xmlns="http://www.w3.org/2000/svg"
   xmlns:sodipodi="http://sodipodi.sourceforge.net/DTD/sodipodi-0.dtd"
   xmlns:inkscape="http://www.inkscape.org/namespaces/inkscape"
   width="767"
   height="117"
   viewBox="0 0 206.83554 30.768446"
   version="1.1"
   id="svg8"
   inkscape:version="1.0 (4035a4fb49, 2020-05-01)"
   sodipodi:docname="chartreuse.svg">
  <defs
     id="defs2">
    <inkscape:path-effect
       effect="offset"
       id="path-effect1045"
       is_visible="true"
       lpeversion="1"
       linejoin_type="miter"
       unit="mm"
       offset="0.2"
       miter_limit="3.4"
       attempt_force_join="true"
       update_on_knot_move="true" />
    <inkscape:path-effect
       effect="offset"
       id="path-effect993"
       is_visible="true"
       lpeversion="1"
       linejoin_type="miter"
       unit="mm"
       offset="1.2"
       miter_limit="4"
       attempt_force_join="true"
       update_on_knot_move="true" />
    <inkscape:path-effect
       effect="offset"
       id="path-effect982"
       is_visible="true"
       lpeversion="1"
       linejoin_type="miter"
       unit="mm"
       offset="1.1"
       miter_limit="4"
       attempt_force_join="true"
       update_on_knot_move="true" />
    <inkscape:path-effect
       effect="offset"
       id="path-effect950"
       is_visible="true"
       lpeversion="1"
       linejoin_type="miter"
       unit="mm"
       offset="1.1"
       miter_limit="4"
       attempt_force_join="true"
       update_on_knot_move="true" />
    <inkscape:path-effect
       effect="offset"
       id="path-effect942"
       is_visible="true"
       lpeversion="1"
       linejoin_type="miter"
       unit="mm"
       offset="1.2"
       miter_limit="4"
       attempt_force_join="true"
       update_on_knot_move="true" />
    <inkscape:path-effect
       effect="offset"
       id="path-effect930"
       is_visible="true"
       lpeversion="1"
       linejoin_type="miter"
       unit="mm"
       offset="1.2"
       miter_limit="4"
       attempt_force_join="true"
       update_on_knot_move="true" />
    <inkscape:path-effect
       update_on_knot_move="true"
       attempt_force_join="true"
       miter_limit="4"
       offset="1.2"
       unit="mm"
       linejoin_type="miter"
       lpeversion="1"
       is_visible="true"
       id="path-effect918"
       effect="offset" />
    <inkscape:path-effect
       effect="offset"
       id="path-effect914"
       is_visible="true"
       lpeversion="1"
       linejoin_type="miter"
       unit="mm"
       offset="1.2"
       miter_limit="4"
       attempt_force_join="true"
       update_on_knot_move="true" />
  </defs>
  <sodipodi:namedview
     inkscape:pagecheckerboard="false"
     units="px"
     id="base"
     pagecolor="#ffffff"
     bordercolor="#666666"
     borderopacity="1.0"
     inkscape:pageopacity="0"
     inkscape:pageshadow="2"
     inkscape:zoom="2.8284271"
     inkscape:cx="475.84268"
     inkscape:cy="168.00949"
     inkscape:document-units="px"
     inkscape:current-layer="layer1"
     inkscape:document-rotation="0"
     showgrid="false"
     showborder="true"
     inkscape:window-width="3840"
     inkscape:window-height="2126"
     inkscape:window-x="-11"
     inkscape:window-y="-11"
     inkscape:window-maximized="1"
     viewbox-height="30.24249"
     viewbox-width="206.83554" />
  <metadata
     id="metadata5">
    <rdf:RDF>
      <cc:Work
         rdf:about="">
        <dc:format>image/svg+xml</dc:format>
        <dc:type
           rdf:resource="http://purl.org/dc/dcmitype/StillImage" />
        <dc:title />
      </cc:Work>
    </rdf:RDF>
  </metadata>
  <g
     inkscape:label="Layer 1"
     inkscape:groupmode="layer"
     id="layer1">
    <g
       id="g894">
      <path
         id="path1023"
         style="font-style:normal;font-variant:normal;font-weight:normal;font-stretch:normal;font-size:12.531px;line-height:1.25;font-family:Bahnschrift;-inkscape-font-specification:Bahnschrift;fill:#000000;fill-opacity:0.692737;stroke:none;stroke-width:1.08454;stroke-opacity:1"
         d="m 10.879445,30.98346 q -3.1985311,0 -5.634492,-1.419211 Q 2.8301746,28.145028 1.4956891,25.539615 0.16120348,22.934191 0.16120348,19.502668 v -8.451735 q 0,-3.4315333 1.33448562,-6.0369565 1.3344855,-2.6054233 3.7492639,-4.02463429 2.4359609,-1.44039831 5.634492,-1.44039831 2.647783,0 4.871922,1.14384782 2.224145,1.12266058 3.706899,3.19852418 1.50395,2.0758637 2.033505,4.80838 v 0 H 17.06467 v 0 Q 16.662208,7.2592975 15.709002,6.136637 14.776985,4.9927892 13.506045,4.3785111 q -1.270938,-0.6142882 -2.6266,-0.6142882 -1.8852279,0 -3.3044361,0.9108387 Q 6.1557945,5.5859004 5.3720462,7.2381205 4.5883044,8.8691533 4.5883044,11.050933 v 8.451735 q 0,2.160582 0.7837418,3.812803 0.7837483,1.65222 2.2029627,2.563058 1.4192082,0.889662 3.3044361,0.889662 1.376844,0 2.6266,-0.571934 1.27094,-0.571914 2.202957,-1.694574 0.953206,-1.122661 1.355668,-2.668965 v 0 h 4.427101 v 0 q -0.529555,2.732516 -2.033505,4.80838 -1.503937,2.075864 -3.728082,3.219701 -2.224139,1.122661 -4.850739,1.122661 z" />
      <path
         id="path1025"
         style="font-style:normal;font-variant:normal;font-weight:normal;font-stretch:normal;font-size:12.531px;line-height:1.25;font-family:Bahnschrift;-inkscape-font-specification:Bahnschrift;fill:#000000;fill-opacity:0.692737;stroke:none;stroke-width:1.08454;stroke-opacity:1"
         d="M 22.867497,-0.13280779 V 30.66657 h 4.320424 V 17.553224 h 13.175964 v 12.63389 L 44.684309,18.469188 V -0.13280779 H 40.363885 V 13.443902 H 27.187921 V -0.13280779 Z" />
      <path
         id="path1027"
         style="font-style:normal;font-variant:normal;font-weight:normal;font-stretch:normal;font-size:12.531px;line-height:1.25;font-family:Bahnschrift;-inkscape-font-specification:Bahnschrift;fill:#000000;fill-opacity:0.692737;stroke:none;stroke-width:1.08454;stroke-opacity:1"
         d="m 55.966776,-0.13331832 h 3.685723 L 71.006204,30.665722 H 66.346099 L 57.809634,5.8189094 49.273173,30.665722 h -4.6601 z M 49.845099,19.799219 h 16.204449 v 4.109352 H 49.845099 Z" />
      <path
         id="path1029"
         style="font-style:normal;font-variant:normal;font-weight:normal;font-stretch:normal;font-size:12.531px;line-height:1.25;font-family:Bahnschrift;-inkscape-font-specification:Bahnschrift;fill:#754043;fill-opacity:0.81;stroke:none;stroke-width:1.08454;stroke-opacity:1"
         d="M 71.129263,-0.15427076 V 18.998727 l 4.302535,11.667843 h 0.01799 V 17.639086 h 6.433234 l 6.572774,13.027484 h 5.125486 L 86.471806,17.170372 c 0.537419,-0.169141 1.055929,-0.369149 1.538544,-0.633301 1.355667,-0.734325 2.409137,-1.771308 3.157575,-3.112856 0.383652,-0.694912 0.664818,-1.446116 0.85156,-2.248772 V 7.7852936 H 87.62034 c 0.04427,0.3064549 0.07335,0.6223241 0.07335,0.9571138 0,0.9461475 -0.176487,1.7863796 -0.529536,2.5206946 -0.338922,0.720204 -0.826144,1.277313 -1.461616,1.672723 -0.635454,0.395401 -1.363526,0.593939 -2.182571,0.593939 H 75.449809 V 3.9550616 h 7.860855 v -4.10933236 h -7.860855 z" />
      <path
         sodipodi:nodetypes="cccccccccc"
         id="path1031"
         style="font-style:normal;font-variant:normal;font-weight:normal;font-stretch:normal;font-size:12.531px;line-height:1.25;font-family:Bahnschrift;-inkscape-font-specification:Bahnschrift;fill:#000000;fill-opacity:0.692737;stroke:none;stroke-width:1.08454;stroke-opacity:1"
         d="m 96.590005,2.3873762 h 4.321185 V 30.665722 H 96.590005 Z M 87.740811,-0.13331832 H 109.90365 V 3.9760446 H 87.740811 Z" />
      <path
         sodipodi:nodetypes="ccsccscssccccccccccccsccsc"
         id="path1033"
         style="font-style:normal;font-variant:normal;font-weight:normal;font-stretch:normal;font-size:12.531px;line-height:1.25;font-family:Bahnschrift;-inkscape-font-specification:Bahnschrift;fill:#000000;fill-opacity:0.692737;stroke:none;stroke-width:1.08454;stroke-opacity:1"
         d="M 112.91238,-0.15427076 V 3.9550616 h 4.99398 c 0.83317,0 1.55944,0.1967405 2.18079,0.5921513 0.63547,0.3954007 1.1227,0.9616474 1.46161,1.6959732 0.35304,0.720194 0.52954,1.553084 0.52954,2.4992213 0,0.9461475 -0.17649,1.7863796 -0.52954,2.5206946 -0.33892,0.720204 -0.82614,1.277313 -1.46161,1.672723 -0.63547,0.395401 -1.36174,0.593939 -2.18079,0.593939 H 109.8362 V 8.1287828 h -4.32222 V 30.66657 h 4.32222 V 17.639086 h 6.43322 l 6.57279,13.027484 h 5.12547 l -7.11126,-13.496198 c 0.53742,-0.169141 1.05772,-0.369149 1.54032,-0.633301 1.35567,-0.734325 2.40736,-1.771308 3.1558,-3.112856 0.74844,-1.355669 1.12348,-2.916616 1.12348,-4.6818076 0,-1.7651917 -0.37504,-3.3187863 -1.12348,-4.6603345 -0.73433,-1.3556696 -1.77866,-2.4000035 -3.13432,-3.13431903 -1.34156,-0.73432571 -2.9025,-1.10202463 -4.68181,-1.10202463 z" />
      <path
         id="path1035"
         style="font-style:normal;font-variant:normal;font-weight:normal;font-stretch:normal;font-size:12.531px;line-height:1.25;font-family:Bahnschrift;-inkscape-font-specification:Bahnschrift;fill:#000000;fill-opacity:0.692737;stroke:none;stroke-width:1.08454;stroke-opacity:1"
         d="M 127.97484,-0.13280779 V 21.75915 l 4.69254,8.90742 h 12.64712 v -4.109323 h -13.01923 v -9.131045 h 13.13302 V 13.31688 H 132.29527 V 3.9765245 h 13.10018 v -4.10933229 h -13.10018 z"
         sodipodi:nodetypes="ccccccccccccccc" />
      <path
         id="path1037"
         style="font-style:normal;font-variant:normal;font-weight:normal;font-stretch:normal;font-size:12.531px;line-height:1.25;font-family:Bahnschrift;-inkscape-font-specification:Bahnschrift;fill:#754043;fill-opacity:0.81;stroke:none;stroke-width:1.08454;stroke-opacity:1"
         d="M 146.77938,-0.13280779 V 19.524703 c 0,1.155937 0.10281,2.22638 0.29696,3.223765 h 4.48144 C 151.25487,21.858439 151.0998,20.834047 151.0998,19.67139 V -0.13280779 Z m 17.32644,0 V 19.67139 c 0,2.245332 -0.57181,3.982771 -1.71565,5.211347 -0.83554,0.908644 -1.93153,1.479036 -3.2846,1.715649 v 4.309698 c 1.64327,-0.157695 3.09366,-0.57465 4.34368,-1.259454 1.62398,-0.903783 2.85951,-2.209195 3.7068,-3.917901 0.84729,-1.722827 1.27019,-3.791247 1.27019,-6.206026 V -0.13280779 Z" />
      <path
         id="path1039"
         style="font-style:normal;font-variant:normal;font-weight:normal;font-stretch:normal;font-size:12.531px;line-height:1.25;font-family:Bahnschrift;-inkscape-font-specification:Bahnschrift;fill:#000000;fill-opacity:0.692737;stroke:none;stroke-width:1.08454;stroke-opacity:1"
         d="m 179.69871,-0.68023647 c -2.30181,0 -4.27096,0.35301621 -5.90906,1.05908882 -1.6381,0.70607255 -2.88832,1.73750015 -3.74973,3.09316975 -0.8473,1.3415482 -1.2702,2.9650353 -1.2702,4.8714415 v 0.021443 c 0,2.1747134 0.45785,3.8551864 1.37575,5.0413884 0.91789,1.172091 2.01921,1.984733 3.30428,2.43662 1.29917,0.437765 2.97964,0.833063 5.04138,1.1861 l 0.31844,0.06259 c 0.0424,0.01419 0.0846,0.02144 0.12701,0.02144 0.0565,0 0.10611,0.0071 0.14848,0.02144 1.39804,0.254186 2.5343,0.535522 3.40984,0.846204 0.88965,0.296551 1.61035,0.763529 2.1611,1.398994 0.26242,0.288688 0.45702,0.631718 0.59752,1.017929 v -5.957343 c -1.223,-0.502226 -2.73013,-0.93998 -4.53689,-1.309548 -0.0707,-0.01419 -0.14962,-0.02869 -0.23437,-0.04289 -0.0847,-0.01419 -0.16198,-0.02706 -0.23257,-0.04115 -0.0565,-0.01419 -0.11345,-0.02144 -0.16995,-0.02144 -0.0424,-0.01419 -0.092,-0.02869 -0.14848,-0.04299 -1.59573,-0.310672 -2.84417,-0.606692 -3.74795,-0.889131 -0.88966,-0.29655 -1.63796,-0.748835 -2.24519,-1.356057 -0.59311,-0.607223 -0.89092,-1.4401128 -0.89092,-2.4992319 v -0.021443 c 0,-1.5392485 0.57915,-2.7251442 1.73711,-3.55832 1.17209,-0.8472872 2.81027,-1.2719722 4.91438,-1.2719722 1.17209,0 2.33773,0.2187957 3.49569,0.6565607 0.68625,0.2480495 1.3729,0.5804805 2.05914,0.978587 V 0.41995057 c -0.76111,-0.30329979 -1.52946,-0.56533799 -2.31317,-0.74063595 -1.05911,-0.24005481 -2.14018,-0.35959194 -3.24166,-0.35959194 z m 5.55483,24.14967447 c -0.28547,0.798633 -0.81657,1.462137 -1.59399,1.989359 -1.22857,0.819044 -2.95868,1.229046 -5.18989,1.229046 -1.65221,0 -3.18377,-0.253727 -4.59592,-0.762109 -1.41215,-0.508383 -2.70468,-1.27138 -3.87677,-2.288135 l -2.68885,3.304277 c 1.00262,0.847287 2.07456,1.553319 3.2184,2.118177 1.15797,0.564858 2.40084,0.987756 3.72827,1.270185 1.32743,0.282429 2.73212,0.423991 4.21487,0.423991 2.38655,0 4.42003,-0.345664 6.10049,-1.037616 0.24195,-0.10078 0.45787,-0.222859 0.68339,-0.336331 z" />
      <path
         sodipodi:nodetypes="cccccccccccccccccccc"
         id="path1041"
         style="font-style:normal;font-variant:normal;font-weight:normal;font-stretch:normal;font-size:12.531px;line-height:1.25;font-family:Bahnschrift;-inkscape-font-specification:Bahnschrift;fill:#000000;fill-opacity:0.692737;stroke:none;stroke-width:1.08454;stroke-opacity:1"
         d="m 189.40344,-0.13331832 h 4.3212 V 30.665722 h -4.3212 z m 2.09705,26.68968732 h 15.29933 v 4.109353 h -15.29933 z m 0,-13.238938 h 15.35717 v 4.109363 h -15.35717 z m 0,-13.45074932 h 15.29933 V 3.9760446 h -15.29933 z" />
    </g>
  </g>
</svg>
