<svg id="logo" xmlns="http://www.w3.org/2000/svg">
    <path d="M 0 64.6 L 1.4 63.4 A 22.362 22.362 0 0 0 5.456 68.069 A 19.614 19.614 0 0 0 8.45 70.2 Q 12.6 72.6 17.5 72.6 Q 22.941 72.6 26.385 70.378 A 11.027 11.027 0 0 0 28.9 68.15 A 13.895 13.895 0 0 0 31.296 63.767 Q 31.989 61.767 32.313 59.305 A 36.067 36.067 0 0 0 32.6 54.6 L 32.6 6.1 L 6.4 6.1 L 6.4 4.2 L 34.6 4.2 L 34.6 54.8 A 32.831 32.831 0 0 1 33.835 62.234 Q 30.972 74.5 17.4 74.5 Q 12.1 74.5 7.45 71.85 Q 2.8 69.2 0 64.6 Z"/>
    <path d="M 68.676 72.917 A 25.889 25.889 0 0 0 77.8 74.5 A 29.573 29.573 0 0 0 78.682 74.487 A 24.854 24.854 0 0 0 90.65 71.15 Q 96.4 67.8 99.65 61.8 A 26.054 26.054 0 0 0 101.754 56.677 A 29.757 29.757 0 0 0 102.9 48.3 A 32.702 32.702 0 0 0 102.781 45.486 A 26.722 26.722 0 0 0 99.65 34.85 Q 96.4 28.9 90.65 25.55 A 24.187 24.187 0 0 0 86.924 23.783 A 25.889 25.889 0 0 0 77.8 22.2 A 29.573 29.573 0 0 0 76.918 22.213 A 24.854 24.854 0 0 0 64.95 25.55 Q 59.2 28.9 55.95 34.85 A 25.659 25.659 0 0 0 53.786 40.146 A 29.673 29.673 0 0 0 52.7 48.3 A 32.942 32.942 0 0 0 52.796 50.834 A 27.128 27.128 0 0 0 55.95 61.8 Q 59.2 67.8 64.95 71.15 A 24.187 24.187 0 0 0 68.676 72.917 Z M 77.8 72.6 A 23.474 23.474 0 0 0 86.7 70.928 A 22.396 22.396 0 0 0 89.6 69.5 Q 94.9 66.4 97.9 60.85 A 25.079 25.079 0 0 0 100.776 51.084 A 30.752 30.752 0 0 0 100.9 48.3 A 28.068 28.068 0 0 0 99.951 40.884 A 24.098 24.098 0 0 0 97.9 35.75 Q 94.9 30.2 89.6 27.15 A 23.096 23.096 0 0 0 78.407 24.107 A 27.353 27.353 0 0 0 77.8 24.1 A 23.872 23.872 0 0 0 69.12 25.659 A 22.528 22.528 0 0 0 66 27.15 Q 60.7 30.2 57.7 35.75 A 25.079 25.079 0 0 0 54.824 45.516 A 30.752 30.752 0 0 0 54.7 48.3 A 28.068 28.068 0 0 0 55.649 55.716 A 24.098 24.098 0 0 0 57.7 60.85 Q 60.7 66.4 66 69.5 A 22.853 22.853 0 0 0 77.395 72.597 A 27.023 27.023 0 0 0 77.8 72.6 Z"/>
    <path d="M 164.2 43.7 L 164.2 74.2 L 162.2 74.2 L 162.2 43.7 A 29.827 29.827 0 0 0 161.702 38.071 Q 160.646 32.582 157.35 29.15 A 15.78 15.78 0 0 0 149.706 24.81 Q 147.197 24.167 144.221 24.106 A 30.629 30.629 0 0 0 143.6 24.1 A 27.255 27.255 0 0 0 136.89 24.881 A 19.099 19.099 0 0 0 127.65 30.15 A 20.432 20.432 0 0 0 122.213 41.112 A 28.912 28.912 0 0 0 121.8 46.1 L 121.8 74.2 L 119.8 74.2 L 119.8 0 L 121.8 0 L 121.8 36.3 Q 124.2 29.7 129.8 25.95 A 21.749 21.749 0 0 1 138.001 22.684 A 29.876 29.876 0 0 1 143.5 22.2 A 27.275 27.275 0 0 1 149.801 22.886 A 18.119 18.119 0 0 1 158.7 27.75 A 17.914 17.914 0 0 1 163.128 35.464 Q 164.2 39.109 164.2 43.7 Z"/>
    <path d="M 231 43.7 L 231 74.2 L 229 74.2 L 229 43.7 A 29.827 29.827 0 0 0 228.502 38.071 Q 227.446 32.582 224.15 29.15 A 15.78 15.78 0 0 0 216.506 24.81 Q 213.997 24.167 211.021 24.106 A 30.629 30.629 0 0 0 210.4 24.1 A 27.255 27.255 0 0 0 203.69 24.881 A 19.099 19.099 0 0 0 194.45 30.15 A 20.432 20.432 0 0 0 189.013 41.112 A 28.912 28.912 0 0 0 188.6 46.1 L 188.6 74.2 L 186.6 74.2 L 186.6 22.5 L 188.6 22.5 L 188.6 36.3 Q 191 29.7 196.6 25.95 A 21.749 21.749 0 0 1 204.801 22.684 A 29.876 29.876 0 0 1 210.3 22.2 A 27.275 27.275 0 0 1 216.601 22.886 A 18.119 18.119 0 0 1 225.5 27.75 A 17.914 17.914 0 0 1 229.928 35.464 Q 231 39.109 231 43.7 Z"/>
    <path d="M 280.2 74.2 L 280.2 4.2 L 306.7 4.2 Q 317.6 4.2 325.95 8.7 Q 334.3 13.2 338.95 21.2 A 34.611 34.611 0 0 1 343.544 37.036 A 41.662 41.662 0 0 1 343.6 39.2 A 36.948 36.948 0 0 1 341.784 50.919 A 33.447 33.447 0 0 1 338.95 57.2 Q 334.3 65.2 325.95 69.7 A 37.358 37.358 0 0 1 313.263 73.761 A 47.585 47.585 0 0 1 306.7 74.2 L 280.2 74.2 Z M 282.2 72.3 L 306.5 72.3 A 43.96 43.96 0 0 0 316.218 71.27 A 34.638 34.638 0 0 0 324.95 68.05 Q 332.9 63.8 337.25 56.25 A 32.818 32.818 0 0 0 341.514 41.833 A 39.796 39.796 0 0 0 341.6 39.2 A 35.633 35.633 0 0 0 340.066 28.606 A 31.631 31.631 0 0 0 337.25 22.15 Q 332.9 14.6 324.95 10.35 A 35.592 35.592 0 0 0 313.417 6.602 A 46.063 46.063 0 0 0 306.5 6.1 L 282.2 6.1 L 282.2 72.3 Z"/>
    <path d="M 402.4 22.5 L 404.4 22.5 L 404.4 74.2 L 402.4 74.2 L 402.4 60.5 Q 400.1 67.1 394.7 70.8 Q 389.3 74.5 381.6 74.5 Q 373.036 74.5 367.698 70.429 A 17.414 17.414 0 0 1 366 68.95 A 17.905 17.905 0 0 1 361.434 61.042 Q 360.4 57.469 360.4 53 L 360.4 22.5 L 362.4 22.5 L 362.4 53 A 28.882 28.882 0 0 0 362.926 58.692 Q 364.021 64.137 367.4 67.55 A 16.318 16.318 0 0 0 375.016 71.829 Q 377.579 72.504 380.621 72.588 A 31.734 31.734 0 0 0 381.5 72.6 A 25.058 25.058 0 0 0 388.071 71.784 A 18.091 18.091 0 0 0 396.8 66.55 Q 402.4 60.5 402.4 50.6 L 402.4 22.5 Z"/>
    <path d="M 449.7 22.2 L 449.7 24.2 L 449.1 24.2 Q 439.8 24.2 434.6 30.15 A 20.011 20.011 0 0 0 430.395 38.22 Q 429.4 41.894 429.4 46.4 L 429.4 74.2 L 427.4 74.2 L 427.4 22.5 L 429.4 22.5 L 429.4 35.9 A 21.233 21.233 0 0 1 432.336 30.082 A 18.087 18.087 0 0 1 436.8 25.75 Q 442 22.2 449.7 22.2 Z"/>
    <path d="M 510.1 43.7 L 510.1 74.2 L 508.1 74.2 L 508.1 43.7 A 29.827 29.827 0 0 0 507.602 38.071 Q 506.546 32.582 503.25 29.15 A 15.78 15.78 0 0 0 495.606 24.81 Q 493.097 24.167 490.121 24.106 A 30.629 30.629 0 0 0 489.5 24.1 A 27.255 27.255 0 0 0 482.79 24.881 A 19.099 19.099 0 0 0 473.55 30.15 A 20.432 20.432 0 0 0 468.113 41.112 A 28.912 28.912 0 0 0 467.7 46.1 L 467.7 74.2 L 465.7 74.2 L 465.7 0 L 467.7 0 L 467.7 36.3 Q 470.1 29.7 475.7 25.95 A 21.749 21.749 0 0 1 483.901 22.684 A 29.876 29.876 0 0 1 489.4 22.2 A 27.275 27.275 0 0 1 495.701 22.886 A 18.119 18.119 0 0 1 504.6 27.75 A 17.914 17.914 0 0 1 509.028 35.464 Q 510.1 39.109 510.1 43.7 Z"/>
    <path d="M 567.5 40.3 L 567.5 74.2 L 565.5 74.2 L 565.5 63.2 Q 563 68.5 557.95 71.5 A 20.904 20.904 0 0 1 551.034 74.042 A 28.602 28.602 0 0 1 545.8 74.5 A 30.289 30.289 0 0 1 540.56 74.075 Q 537.62 73.558 535.277 72.412 A 15.157 15.157 0 0 1 532.35 70.55 A 12.711 12.711 0 0 1 527.546 61.264 A 16.965 16.965 0 0 1 527.5 60 A 14.35 14.35 0 0 1 528.303 55.106 A 12.444 12.444 0 0 1 531.85 49.95 Q 536.03 46.251 545.148 46.106 A 47.314 47.314 0 0 1 545.9 46.1 L 565.5 46.1 L 565.5 40.4 A 25.168 25.168 0 0 0 565.097 35.742 Q 564.61 33.161 563.535 31.147 A 12.169 12.169 0 0 0 561.35 28.2 A 13.167 13.167 0 0 0 556.02 25.062 Q 553.96 24.401 551.462 24.194 A 28.661 28.661 0 0 0 549.1 24.1 A 28.373 28.373 0 0 0 540.808 25.29 A 26.196 26.196 0 0 0 538.65 26.05 A 27.374 27.374 0 0 0 532.497 29.46 A 24.525 24.525 0 0 0 530.3 31.3 L 528.9 29.9 A 25.544 25.544 0 0 1 535.813 25.147 A 30.428 30.428 0 0 1 537.9 24.25 Q 543.2 22.2 549 22.2 A 27.875 27.875 0 0 1 554.33 22.677 Q 557.412 23.278 559.803 24.637 A 14.267 14.267 0 0 1 562.75 26.85 A 14.956 14.956 0 0 1 566.623 33.504 Q 567.308 35.859 567.458 38.682 A 30.518 30.518 0 0 1 567.5 40.3 Z M 565.5 59.4 L 565.5 48 L 545.8 48 Q 537.836 48 533.872 50.876 A 10.005 10.005 0 0 0 533.45 51.2 A 10.385 10.385 0 0 0 529.541 58.807 A 14.395 14.395 0 0 0 529.5 59.9 A 13.024 13.024 0 0 0 530.156 64.128 A 10.836 10.836 0 0 0 533.8 69.2 A 14.433 14.433 0 0 0 538.578 71.64 Q 540.633 72.27 543.101 72.487 A 30.91 30.91 0 0 0 545.8 72.6 A 24.014 24.014 0 0 0 553.911 71.311 Q 561.856 68.475 565.5 59.4 Z"/>
    <path d="M 674.3 43.7 L 674.3 74.2 L 672.3 74.2 L 672.3 43.7 A 30.752 30.752 0 0 0 671.818 38.071 Q 670.795 32.582 667.6 29.15 A 15.299 15.299 0 0 0 659.752 24.697 Q 657.266 24.102 654.323 24.1 A 28.964 28.964 0 0 0 654.3 24.1 A 25.628 25.628 0 0 0 647.656 24.916 A 18.478 18.478 0 0 0 638.8 30.15 Q 633.1 36.2 633.1 46.1 L 633.1 74.2 L 631.1 74.2 L 631.1 43.7 A 30.752 30.752 0 0 0 630.618 38.071 Q 629.595 32.582 626.4 29.15 A 15.299 15.299 0 0 0 618.552 24.697 Q 616.066 24.102 613.123 24.1 A 28.964 28.964 0 0 0 613.1 24.1 A 25.628 25.628 0 0 0 606.456 24.916 A 18.478 18.478 0 0 0 597.6 30.15 Q 591.9 36.2 591.9 46.1 L 591.9 74.2 L 589.9 74.2 L 589.9 22.5 L 591.9 22.5 L 591.9 36.2 Q 594.2 29.6 599.7 25.9 A 21.456 21.456 0 0 1 608.239 22.58 A 28.752 28.752 0 0 1 613 22.2 Q 620.9 22.2 626 26.15 A 16.977 16.977 0 0 1 631.392 33.46 A 23.747 23.747 0 0 1 632.6 37.6 A 21.215 21.215 0 0 1 636.36 30.084 A 20.148 20.148 0 0 1 640.25 26.35 A 21.057 21.057 0 0 1 649.155 22.626 A 28.707 28.707 0 0 1 654.2 22.2 A 25.624 25.624 0 0 1 660.371 22.901 A 17.476 17.476 0 0 1 668.95 27.75 A 17.917 17.917 0 0 1 673.163 35.143 Q 674.011 37.951 674.227 41.332 A 37.269 37.269 0 0 1 674.3 43.7 Z"/>
</svg>