<?xml version="1.0" encoding="UTF-8" standalone="no"?>
<svg
   xmlns:dc="http://purl.org/dc/elements/1.1/"
   xmlns:cc="http://creativecommons.org/ns#"
   xmlns:rdf="http://www.w3.org/1999/02/22-rdf-syntax-ns#"
   xmlns:svg="http://www.w3.org/2000/svg"
   xmlns="http://www.w3.org/2000/svg"
   xmlns:sodipodi="http://sodipodi.sourceforge.net/DTD/sodipodi-0.dtd"
   xmlns:inkscape="http://www.inkscape.org/namespaces/inkscape"
   width="75.696953mm"
   height="15mm"
   viewBox="0 0 75.696953 15"
   version="1.1"
   id="svg8"
   inkscape:version="1.0 (4035a4fb49, 2020-05-01)"
   sodipodi:docname="name-logo.svg">
  <defs
     id="defs2" />
  <sodipodi:namedview
     id="base"
     pagecolor="#ffffff"
     bordercolor="#666666"
     borderopacity="1.0"
     inkscape:pageopacity="0.0"
     inkscape:pageshadow="2"
     inkscape:zoom="8.0000002"
     inkscape:cx="169.01649"
     inkscape:cy="46.017996"
     inkscape:document-units="mm"
     inkscape:current-layer="layer1"
     inkscape:document-rotation="0"
     showgrid="false"
     inkscape:window-width="3840"
     inkscape:window-height="2126"
     inkscape:window-x="-11"
     inkscape:window-y="-11"
     inkscape:window-maximized="1"
     fit-margin-top="0"
     fit-margin-left="0"
     fit-margin-right="0"
     fit-margin-bottom="0" />
  <metadata
     id="metadata5">
    <rdf:RDF>
      <cc:Work
         rdf:about="">
        <dc:format>image/svg+xml</dc:format>
        <dc:type
           rdf:resource="http://purl.org/dc/dcmitype/StillImage" />
        <dc:title />
      </cc:Work>
    </rdf:RDF>
  </metadata>
  <g
     inkscape:label="Layer 1"
     inkscape:groupmode="layer"
     id="layer1"
     transform="translate(-59.320504,-77.155004)">
    <g
       id="g948"
       transform="translate(0,3.399488)"
       style="fill:none;fill-opacity:1;stroke:#aeaeae;stroke-opacity:1">
      <path
         d="m 65.821276,83.19596 q 0,1.012855 -0.620116,1.560623 -0.614947,0.547768 -1.65364,0.547768 -0.248046,0 -0.661456,-0.04651 -0.41341,-0.04134 -0.692462,-0.103353 v -0.956011 h 0.05684 q 0.211872,0.07235 0.52193,0.149862 0.310057,0.07751 0.635618,0.07751 0.475422,0 0.754473,-0.10852 0.28422,-0.10852 0.418578,-0.310058 0.139526,-0.206705 0.1757,-0.506427 0.04134,-0.299723 0.04134,-0.692462 V 78.31772 h -1.627803 v -0.816485 h 2.650993 z"
         style="font-style:normal;font-weight:normal;font-size:10.5833px;line-height:1.25;font-family:sans-serif;fill:none;fill-opacity:1;stroke:#aeaeae;stroke-width:0.264583;stroke-opacity:1"
         id="path903" />
      <path
         d="m 72.658046,82.312296 q 0,1.410762 -0.723468,2.227247 -0.723467,0.816485 -1.93786,0.816485 -1.224727,0 -1.948195,-0.816485 -0.7183,-0.816485 -0.7183,-2.227247 0,-1.410763 0.7183,-2.227248 0.723468,-0.821652 1.948195,-0.821652 1.214393,0 1.93786,0.821652 0.723468,0.816485 0.723468,2.227248 z m -1.002519,0 q 0,-1.121375 -0.439249,-1.663976 -0.439248,-0.547769 -1.21956,-0.547769 -0.790647,0 -1.229895,0.547769 -0.43408,0.542601 -0.43408,1.663976 0,1.085201 0.439248,1.648472 0.439248,0.558104 1.224727,0.558104 0.775144,0 1.214393,-0.552936 0.444416,-0.558104 0.444416,-1.65364 z"
         style="font-style:normal;font-weight:normal;font-size:10.5833px;line-height:1.25;font-family:sans-serif;fill:none;fill-opacity:1;stroke:#aeaeae;stroke-width:0.264583;stroke-opacity:1"
         id="path905" />
      <path
         d="m 78.993558,85.195831 h -0.971514 v -3.28661 q 0,-0.397908 -0.04651,-0.744139 -0.04651,-0.351398 -0.170532,-0.547768 -0.12919,-0.21704 -0.372069,-0.320393 -0.242878,-0.10852 -0.63045,-0.10852 -0.397907,0 -0.831988,0.19637 -0.434081,0.19637 -0.831988,0.50126 v 4.3098 h -0.971514 v -8.040827 h 0.971514 v 2.909374 q 0.454751,-0.377237 0.940508,-0.58911 0.485757,-0.211872 0.997352,-0.211872 0.935341,0 1.426265,0.563271 0.490925,0.563271 0.490925,1.622635 z"
         style="font-style:normal;font-weight:normal;font-size:10.5833px;line-height:1.25;font-family:sans-serif;fill:none;fill-opacity:1;stroke:#aeaeae;stroke-width:0.264583;stroke-opacity:1"
         id="path907" />
      <path
         d="m 85.6908,85.195831 h -0.971513 v -3.28661 q 0,-0.397908 -0.04651,-0.744139 -0.04651,-0.351398 -0.170532,-0.547768 -0.12919,-0.21704 -0.372069,-0.320393 -0.242878,-0.10852 -0.63045,-0.10852 -0.397908,0 -0.831988,0.19637 -0.434081,0.19637 -0.831988,0.50126 v 4.3098 h -0.971514 v -5.772239 h 0.971514 v 0.640786 q 0.454751,-0.377237 0.940508,-0.58911 0.485757,-0.211872 0.997352,-0.211872 0.93534,0 1.426265,0.563271 0.490924,0.563271 0.490924,1.622635 z"
         style="font-style:normal;font-weight:normal;font-size:10.5833px;line-height:1.25;font-family:sans-serif;fill:none;fill-opacity:1;stroke:#aeaeae;stroke-width:0.264583;stroke-opacity:1"
         id="path909" />
      <path
         d="m 97.86056,81.356285 q 0,1.049028 -0.459919,1.901686 -0.454751,0.852659 -1.214392,1.322913 -0.527098,0.32556 -1.178219,0.470254 -0.645953,0.144693 -1.705317,0.144693 h -1.943027 v -7.694596 h 1.922357 q 1.126543,0 1.787999,0.165364 0.666624,0.160197 1.126542,0.444416 0.78548,0.490925 1.224728,1.30741 0.439248,0.816485 0.439248,1.93786 z m -1.069698,-0.0155 q 0,-0.904335 -0.315226,-1.52445 -0.315225,-0.620115 -0.940508,-0.976682 -0.454751,-0.258381 -0.966346,-0.356566 -0.511595,-0.103352 -1.224728,-0.103352 h -0.961178 v 5.937603 h 0.961178 q 0.738971,0 1.28674,-0.10852 0.552936,-0.108521 1.012854,-0.403075 0.573607,-0.366902 0.857826,-0.966347 0.289388,-0.599444 0.289388,-1.498611 z"
         style="font-style:normal;font-weight:normal;font-size:10.5833px;line-height:1.25;font-family:sans-serif;fill:none;fill-opacity:1;stroke:#aeaeae;stroke-width:0.264583;stroke-opacity:1"
         id="path911" />
      <path
         d="m 104.23225,85.195831 h -0.97152 v -0.640785 q -0.49092,0.387572 -0.94051,0.594277 -0.44958,0.206705 -0.99218,0.206705 -0.9095,0 -1.41593,-0.552936 -0.506427,-0.558104 -0.506427,-1.63297 v -3.74653 h 0.971517 v 3.286611 q 0,0.439248 0.0413,0.754473 0.0413,0.310058 0.1757,0.532266 0.13952,0.227375 0.36173,0.330728 0.22221,0.103353 0.64595,0.103353 0.37724,0 0.82166,-0.19637 0.44958,-0.19637 0.83715,-0.50126 v -4.309801 h 0.97152 z"
         style="font-style:normal;font-weight:normal;font-size:10.5833px;line-height:1.25;font-family:sans-serif;fill:none;fill-opacity:1;stroke:#aeaeae;stroke-width:0.264583;stroke-opacity:1"
         id="path913" />
      <path
         d="m 109.7461,80.482956 h -0.0517 q -0.21704,-0.05168 -0.42375,-0.07235 -0.20154,-0.02584 -0.48059,-0.02584 -0.44958,0 -0.86816,0.201537 -0.41858,0.19637 -0.80615,0.511595 v 4.097928 h -0.97151 v -5.772239 h 0.97151 v 0.852659 q 0.57877,-0.465087 1.01802,-0.656289 0.44442,-0.19637 0.90434,-0.19637 0.25321,0 0.3669,0.0155 0.11369,0.01034 0.34106,0.04651 z"
         style="font-style:normal;font-weight:normal;font-size:10.5833px;line-height:1.25;font-family:sans-serif;fill:none;fill-opacity:1;stroke:#aeaeae;stroke-width:0.264583;stroke-opacity:1"
         id="path915" />
      <path
         d="m 115.49767,85.195831 h -0.97151 v -3.28661 q 0,-0.397908 -0.0465,-0.744139 -0.0465,-0.351398 -0.17053,-0.547768 -0.12919,-0.21704 -0.37207,-0.320393 -0.24288,-0.10852 -0.63045,-0.10852 -0.39791,0 -0.83199,0.19637 -0.43408,0.19637 -0.83199,0.50126 v 4.3098 h -0.97151 v -8.040827 h 0.97151 v 2.909374 q 0.45476,-0.377237 0.94051,-0.58911 0.48576,-0.211872 0.99735,-0.211872 0.93534,0 1.42627,0.563271 0.49092,0.563271 0.49092,1.622635 z"
         style="font-style:normal;font-weight:normal;font-size:10.5833px;line-height:1.25;font-family:sans-serif;fill:none;fill-opacity:1;stroke:#aeaeae;stroke-width:0.264583;stroke-opacity:1"
         id="path917" />
      <path
         d="m 121.85385,85.195831 h -0.96634 v -0.614947 q -0.12919,0.08785 -0.3514,0.248046 -0.21704,0.155029 -0.42375,0.248046 -0.24288,0.118855 -0.5581,0.19637 -0.31523,0.08268 -0.73897,0.08268 -0.78031,0 -1.32291,-0.516763 -0.5426,-0.516763 -0.5426,-1.317745 0,-0.656288 0.27905,-1.059363 0.28422,-0.408243 0.80615,-0.640786 0.52709,-0.232543 1.26607,-0.315225 0.73897,-0.08268 1.58646,-0.124023 V 81.23226 q 0,-0.330729 -0.11886,-0.547769 -0.11369,-0.21704 -0.33073,-0.341063 -0.2067,-0.118856 -0.49609,-0.160197 -0.28939,-0.04134 -0.60461,-0.04134 -0.38241,0 -0.85266,0.103353 -0.47025,0.09819 -0.97151,0.289387 h -0.0517 v -0.987017 q 0.28422,-0.07751 0.82165,-0.170531 0.53744,-0.09302 1.05937,-0.09302 0.60978,0 1.05936,0.103353 0.45475,0.09819 0.78548,0.341063 0.32556,0.237711 0.49609,0.614948 0.17053,0.377237 0.17053,0.93534 z m -0.96634,-1.421097 v -1.607132 q -0.44442,0.02584 -1.04903,0.07751 -0.59945,0.05168 -0.95084,0.149862 -0.41858,0.118855 -0.67696,0.372069 -0.25839,0.248046 -0.25839,0.687294 0,0.496092 0.29973,0.749306 0.29972,0.248046 0.91467,0.248046 0.51159,0 0.93534,-0.19637 0.42374,-0.201537 0.78548,-0.480589 z"
         style="font-style:normal;font-weight:normal;font-size:10.5833px;line-height:1.25;font-family:sans-serif;fill:none;fill-opacity:1;stroke:#aeaeae;stroke-width:0.264583;stroke-opacity:1"
         id="path919" />
      <path
         d="m 132.1581,85.195831 h -0.97151 v -3.28661 q 0,-0.372069 -0.0362,-0.7183 -0.031,-0.346231 -0.13952,-0.552937 -0.11886,-0.222207 -0.34107,-0.335895 -0.2222,-0.113688 -0.64078,-0.113688 -0.40824,0 -0.81649,0.206705 -0.40824,0.201537 -0.81648,0.516763 0.0155,0.118855 0.0258,0.279052 0.0103,0.155028 0.0103,0.310057 v 3.694853 h -0.97151 v -3.28661 q 0,-0.382405 -0.0362,-0.723468 -0.031,-0.346231 -0.13952,-0.552936 -0.11886,-0.222208 -0.34106,-0.330728 -0.22221,-0.113688 -0.64079,-0.113688 -0.39791,0 -0.80098,0.19637 -0.39791,0.19637 -0.79582,0.50126 v 4.3098 h -0.97151 v -5.772239 h 0.97151 v 0.640786 q 0.45475,-0.377237 0.90434,-0.58911 0.45475,-0.211872 0.96634,-0.211872 0.58911,0 0.99736,0.248046 0.41341,0.248046 0.61494,0.687294 0.58911,-0.496092 1.07487,-0.713132 0.48576,-0.222208 1.03869,-0.222208 0.95085,0 1.40043,0.578774 0.45475,0.573607 0.45475,1.607132 z"
         style="font-style:normal;font-weight:normal;font-size:10.5833px;line-height:1.25;font-family:sans-serif;fill:none;fill-opacity:1;stroke:#aeaeae;stroke-width:0.264583;stroke-opacity:1"
         id="path921" />
    </g>
  </g>
</svg>
